<?xml version="1.0" encoding="utf-8"?>
<!-- Generator: Adobe Illustrator 22.1.0, SVG Export Plug-In . SVG Version: 6.00 Build 0)  -->
<svg version="1.1" id="Layer_1" xmlns="http://www.w3.org/2000/svg" xmlns:xlink="http://www.w3.org/1999/xlink" x="0px" y="0px"
	 viewBox="0 0 276 412" style="enable-background:new 0 0 276 412;" xml:space="preserve">
<style type="text/css">
	.st0{fill:none;stroke:#FFFFFF;stroke-width:0.5;stroke-linejoin:round;stroke-miterlimit:10;}
	.st1{fill:none;stroke:#000000;stroke-width:0.5;stroke-linejoin:round;stroke-miterlimit:10;}
	.st2{clip-path:url(#SVGID_2_);fill:none;stroke:#3953A4;stroke-width:2.5;stroke-linejoin:round;stroke-miterlimit:10;}
	.st3{fill:#ED2024;}
	.st4{fill:none;stroke:#ED2024;stroke-width:2.5;stroke-linejoin:round;stroke-miterlimit:10;}
	.st5{clip-path:url(#SVGID_4_);fill:none;stroke:#000000;stroke-width:0.5;stroke-linejoin:round;stroke-miterlimit:10;}
	.st6{fill:none;stroke:#ED2024;stroke-linejoin:round;stroke-miterlimit:10;stroke-dasharray:6;}
	.st7{fill:none;}
	.st8{fill:#3953A4;}
	.st9{fill:none;stroke:#ED2024;stroke-width:0.5;stroke-linejoin:round;stroke-miterlimit:10;}
	.st10{fill:#010101;}
	.st11{font-family:'CMUSerif-Italic';}
	.st12{font-size:16px;}
	.st13{font-family:'CMUSerif-Roman';}
	.st14{font-size:14px;}
	.st15{font-size:10px;}
	.st16{fill:none;stroke:#000000;stroke-width:0.5;stroke-miterlimit:10;}
	.st17{font-size:18px;}
	.st18{fill:none;stroke:#010101;stroke-miterlimit:10;}
</style>
<polyline class="st0" points="23,379.5 23,12.7 255.5,12.7 255.5,379.5 23,379.5 "/>
<path class="st1" d="M23,12.8h232.5 M23,379.5h232.5 M255.5,379.5V12.8 M23,379.5V12.8 M23,379.5h232.5 M23,379.5V12.8 M23,379.5
	v-3.8 M23,12.8v3.7 M81.1,379.5v-3.8 M81.1,12.8v3.7 M139.3,379.5v-3.8 M139.3,12.8v3.7 M197.3,379.5v-3.8 M197.3,12.8v3.7
	 M255.5,379.5v-3.8 M255.5,12.8v3.7 M23,379.5h3.7 M255.5,379.5h-3.8 M23,333.6h3.7 M255.5,333.6h-3.8 M23,287.7h3.7 M255.5,287.7
	h-3.8 M23,241.9h3.7 M255.5,241.9h-3.8 M23,196.1h3.7 M255.5,196.1h-3.8 M23,150.2h3.7 M255.5,150.2h-3.8 M23,104.4h3.7
	 M255.5,104.4h-3.8 M23,58.6h3.7 M255.5,58.6h-3.8 M23,12.8h3.7 M255.5,12.8h-3.8 M23,12.8h232.5 M23,379.5h232.5 M255.5,379.5V12.8
	 M23,379.5V12.8"/>
<g>
	<defs>
		<rect id="SVGID_1_" x="23" y="12.8" width="232.6" height="366.8"/>
	</defs>
	<clipPath id="SVGID_2_">
		<use xlink:href="#SVGID_1_"  style="overflow:visible;"/>
	</clipPath>
	<polyline class="st2" points="34.6,234.3 35.8,234.2 36.9,234 38.1,233.9 39.3,233.7 40.4,233.6 41.6,233.4 42.8,233.2 43.9,233 
		45.1,232.8 46.3,232.7 47.3,232.5 48.5,232.3 49.7,232.1 50.8,231.9 52,231.7 53.2,231.5 54.3,231.2 55.5,231.1 56.7,230.8 
		57.8,230.6 59,230.4 60.2,230.2 61.3,229.9 62.5,229.7 63.7,229.4 64.8,229.2 66,228.9 67.2,228.7 68.3,228.4 69.5,228.1 
		70.6,227.8 71.8,227.6 72.9,227.2 74.1,227 75.3,226.7 76.4,226.3 77.6,226.1 78.8,225.8 79.9,225.4 81.1,225.1 82.3,224.8 
		83.4,224.3 84.6,224 85.8,223.7 86.9,223.3 88.1,222.9 89.3,222.5 90.4,222.2 91.6,221.8 92.8,221.3 93.8,220.9 95,220.5 
		96.2,220.1 97.3,219.6 98.5,219.2 99.7,218.7 100.8,218.2 102,217.7 103.2,217.3 104.3,216.8 105.5,216.2 106.7,215.8 107.8,215.3 
		109,214.7 110.2,214.1 111.3,213.6 112.5,213 113.7,212.4 114.8,211.8 116,211.2 117.1,210.6 118.3,209.9 119.4,209.3 120.6,208.7 
		121.8,208 122.9,207.3 124.1,206.6 125.3,205.8 126.4,205.2 127.6,204.4 128.8,203.7 129.9,202.8 131.1,202.1 132.3,201.3 
		133.4,200.4 134.6,199.6 135.8,198.8 136.9,197.9 138.1,197 139.2,196.1 140.3,195.2 141.5,194.3 142.7,193.2 143.8,192.2 
		145,191.3 146.2,190.2 147.3,189.2 148.5,188.2 149.7,187.1 150.8,185.9 152,184.8 153.2,183.7 154.3,182.5 155.5,181.2 
		156.7,180.1 157.8,178.8 159,177.5 160.2,176.2 161.3,174.9 162.5,173.5 163.6,172.2 164.8,170.8 165.9,169.3 167.1,167.8 
		168.3,166.3 169.4,164.8 170.6,163.2 171.8,161.7 172.9,160.1 174.1,158.4 175.3,156.7 176.4,155 177.6,153.2 178.8,151.4 
		179.9,149.6 181.1,147.7 182.3,145.8 183.4,143.9 184.6,141.9 185.8,139.9 186.8,137.8 188,135.8 189.2,133.6 190.3,131.4 
		191.5,129.2 192.7,126.9 193.8,124.6 195,122.2 196.2,119.7 197.3,117.3 198.5,114.8 199.7,112.2 200.8,109.6 202,106.9 
		203.2,104.2 204.3,101.4 205.5,98.6 206.7,95.7 207.8,92.7 209,89.7 210.1,86.7 211.3,83.5 212.4,80.3 213.6,77.1 214.8,73.7 
		215.9,70.3 217.1,66.8 218.3,63.3 219.4,59.7 220.6,56 	"/>
</g>
<path class="st3" d="M142.3,196c0,1.7-1.3,3-3,3s-3-1.3-3-3c0-1.7,1.3-3,3-3S142.3,194.4,142.3,196"/>
<path class="st4" d="M142.3,196c0,1.7-1.3,3-3,3s-3-1.3-3-3c0-1.7,1.3-3,3-3S142.3,194.4,142.3,196"/>
<g>
	<defs>
		<rect id="SVGID_3_" x="23" y="12.8" width="232.6" height="366.8"/>
	</defs>
	<clipPath id="SVGID_4_">
		<use xlink:href="#SVGID_3_"  style="overflow:visible;"/>
	</clipPath>
	<line class="st5" x1="23" y1="196.1" x2="255.5" y2="196.1"/>
</g>
<path class="st6" d="M34.6,196.1v38.3 M220.6,196.1V56 M139.3,196.1v183.5"/>
<rect x="23" y="12.8" class="st7" width="232.6" height="366.8"/>
<rect x="34.6" y="255.7" class="st8" width="186" height="9.2"/>
<path class="st3" d="M142.3,260.4c0,1.7-1.3,3-3,3s-3-1.3-3-3c0-1.7,1.3-3,3-3S142.3,258.7,142.3,260.4"/>
<path class="st9" d="M142.3,260.4c0,1.7-1.3,3-3,3s-3-1.3-3-3c0-1.7,1.3-3,3-3S142.3,258.7,142.3,260.4 M130.5,260.4
	c0,1.7-1.3,3-3,3s-3-1.3-3-3c0-1.7,1.3-3,3-3S130.5,258.7,130.5,260.4"/>
<rect x="127.6" y="301.5" class="st8" width="93" height="9.2"/>
<path class="st3" d="M142.3,306.2c0,1.7-1.3,3-3,3s-3-1.3-3-3c0-1.7,1.3-3,3-3S142.3,304.5,142.3,306.2"/>
<path class="st9" d="M142.3,306.2c0,1.7-1.3,3-3,3s-3-1.3-3-3c0-1.7,1.3-3,3-3S142.3,304.5,142.3,306.2 M177.1,306.2
	c0,1.7-1.3,3-3,3c-1.7,0-3-1.3-3-3c0-1.7,1.3-3,3-3C175.7,303.2,177.1,304.5,177.1,306.2"/>
<rect x="127.6" y="347.3" class="st8" width="46.5" height="9.2"/>
<path class="st3" d="M142.3,351.8c0,1.7-1.3,3-3,3s-3-1.3-3-3s1.3-3,3-3S142.3,350.1,142.3,351.8"/>
<path class="st9" d="M142.3,351.8c0,1.7-1.3,3-3,3s-3-1.3-3-3s1.3-3,3-3S142.3,350.1,142.3,351.8 M153.8,351.8c0,1.7-1.3,3-3,3
	c-1.7,0-3-1.3-3-3s1.3-3,3-3C152.5,348.8,153.8,350.1,153.8,351.8"/>
<path class="st9" d="M134.3,35.7c0,1.7-1.3,3-3,3s-3-1.3-3-3s1.3-3,3-3S134.3,34.1,134.3,35.7"/>
<text transform="matrix(1 0 0 1 29.5833 186.4997)" class="st10 st11 st12">x</text>
<text transform="matrix(0.583 0 0 0.583 36.9896 191.8278)" class="st10 st11 st12">a</text>
<text transform="matrix(1 0 0 1 215.5833 211.7497)" class="st10 st11 st12">x</text>
<text transform="matrix(0.583 0 0 0.583 222.9896 217.0778)" class="st10 st11 st12">b</text>
<text transform="matrix(6.123234e-17 -1 1 6.123234e-17 142.2804 185.5137)" class="st10 st13 st14">solution</text>
<text transform="matrix(1 0 0 1 115.0833 277.2497)" class="st10 st11 st12">x</text>
<text transform="matrix(0.583 0 0 0.583 122.4896 282.5778)" class="st10 st11 st12">sol</text>
<text transform="matrix(1 0 0 1 117.0833 323.7497)" class="st10 st11 st12">x</text>
<text transform="matrix(0.583 0 0 0.583 124.4896 329.0778)" class="st10 st11 st12">a</text>
<text transform="matrix(1 0 0 1 217.0832 324.7497)" class="st10 st11 st12">x</text>
<text transform="matrix(0.583 0 0 0.583 224.4894 330.0778)" class="st10 st11 st12">b</text>
<line class="st6" x1="220.6" y1="196.1" x2="220.6" y2="306.1"/>
<line class="st6" x1="174.1" y1="306.2" x2="174.1" y2="351.9"/>
<text transform="matrix(1 0 0 1 168.3333 324.7493)" class="st10 st11 st12">x</text>
<text transform="matrix(0.583 0 0 0.583 175.7396 330.0775)" class="st10 st11 st12">sol</text>
<line class="st6" x1="128.1" y1="306.2" x2="128.1" y2="351.9"/>
<text transform="matrix(1 0 0 1 23.8331 301.4999)" class="st10 st13 st15">1st iteration</text>
<text transform="matrix(1 0 0 1 24.8335 348.7999)" class="st10 st13 st15">2nd iteration</text>
<line class="st16" x1="23" y1="260.2" x2="255.6" y2="260.2"/>
<line class="st16" x1="22.2" y1="306.2" x2="254.8" y2="306.2"/>
<line class="st16" x1="23" y1="351.9" x2="255.5" y2="351.9"/>
<text transform="matrix(1 0 0 1 138.8 38.7201)" class="st10 st13 st14">estimated solution</text>
<text transform="matrix(6.123234e-17 -1 1 6.123234e-17 14.9456 70.083)" class="st10 st11 st17">y</text>
<g>
	<line class="st10" x1="9.5" y1="54.1" x2="9.5" y2="14.6"/>
	<g>
		<line class="st18" x1="9.5" y1="54.1" x2="9.5" y2="22.7"/>
		<g>
			<path class="st10" d="M9.5,24.5l-3.6,2.2l-0.1-0.1l2.3-5.9c0.5-2,0.9-4.1,1.4-6.1c0.5,2,0.9,4.1,1.4,6.1l2.3,5.9l-0.1,0.1
				L9.5,24.5z"/>
		</g>
	</g>
</g>
<text transform="matrix(1 0 0 1 200.0807 396.0834)" class="st10 st11 st17">x</text>
<g>
	<line class="st10" x1="216.1" y1="390.7" x2="255.6" y2="390.7"/>
	<g>
		<line class="st18" x1="216.1" y1="390.7" x2="247.4" y2="390.7"/>
		<g>
			<path class="st10" d="M245.6,390.7l-2.2-3.6l0.1-0.1l5.9,2.3c2,0.5,4.1,0.9,6.1,1.4c-2,0.5-4.1,0.9-6.1,1.4l-5.9,2.3l-0.1-0.1
				L245.6,390.7z"/>
		</g>
	</g>
</g>
<text transform="matrix(1 0 0 1 119.0833 368.7497)" class="st10 st11 st12">x</text>
<text transform="matrix(0.583 0 0 0.583 126.4895 374.0778)" class="st10 st11 st12">a</text>
<text transform="matrix(1 0 0 1 170.0831 369.7497)" class="st10 st11 st12">x</text>
<text transform="matrix(0.583 0 0 0.583 177.4893 375.0778)" class="st10 st11 st12">b</text>
</svg>
