<?xml version="1.0" encoding="utf-8"?>
<!-- Generator: Adobe Illustrator 22.1.0, SVG Export Plug-In . SVG Version: 6.00 Build 0)  -->
<svg version="1.1" id="Layer_1" xmlns="http://www.w3.org/2000/svg" xmlns:xlink="http://www.w3.org/1999/xlink" x="0px" y="0px"
	 viewBox="0 0 515.3 403.3" style="enable-background:new 0 0 515.3 403.3;" xml:space="preserve">
<style type="text/css">
	.st0{fill:none;stroke:#FFFFFF;stroke-width:0.5;stroke-linejoin:round;stroke-miterlimit:10;}
	.st1{fill:none;stroke:#000000;stroke-width:0.5;stroke-linejoin:round;stroke-miterlimit:10;}
	.st2{clip-path:url(#SVGID_2_);fill:none;stroke:#0000FF;stroke-width:2.5;stroke-linejoin:round;stroke-miterlimit:10;}
	.st3{fill:none;stroke:#FF0000;stroke-width:2.5;stroke-linejoin:round;stroke-miterlimit:10;}
	.st4{clip-path:url(#SVGID_4_);fill:none;stroke:#000000;stroke-width:0.5;stroke-linejoin:round;stroke-miterlimit:10;}
	
		.st5{clip-path:url(#SVGID_4_);fill:none;stroke:#FF0000;stroke-width:2.5;stroke-linejoin:round;stroke-miterlimit:10;stroke-dasharray:6,6;}
	.st6{font-family:'CMUSerif-Italic';}
	.st7{font-size:22px;}
	.st8{font-family:'CMUSerif-Roman';}
	.st9{fill:none;stroke:#000000;stroke-miterlimit:10;}
</style>
<polyline class="st0" points="38.3,375.2 38.3,8.4 503.3,8.4 503.3,375.2 38.3,375.2 "/>
<line class="st1" x1="38.3" y1="8.4" x2="503.3" y2="8.4"/>
<line class="st1" x1="38.3" y1="375.2" x2="503.3" y2="375.2"/>
<line class="st1" x1="503.3" y1="375.2" x2="503.3" y2="8.4"/>
<line class="st1" x1="38.3" y1="375.2" x2="38.3" y2="8.4"/>
<line class="st1" x1="38.3" y1="375.2" x2="503.3" y2="375.2"/>
<line class="st1" x1="38.3" y1="375.2" x2="38.3" y2="8.4"/>
<line class="st1" x1="38.3" y1="375.2" x2="38.3" y2="370.5"/>
<line class="st1" x1="38.3" y1="8.4" x2="38.3" y2="13"/>
<line class="st1" x1="100.3" y1="375.2" x2="100.3" y2="370.5"/>
<line class="st1" x1="100.3" y1="8.4" x2="100.3" y2="13"/>
<line class="st1" x1="162.3" y1="375.2" x2="162.3" y2="370.5"/>
<line class="st1" x1="162.3" y1="8.4" x2="162.3" y2="13"/>
<line class="st1" x1="224.3" y1="375.2" x2="224.3" y2="370.5"/>
<line class="st1" x1="224.3" y1="8.4" x2="224.3" y2="13"/>
<line class="st1" x1="286.3" y1="375.2" x2="286.3" y2="370.5"/>
<line class="st1" x1="286.3" y1="8.4" x2="286.3" y2="13"/>
<line class="st1" x1="348.3" y1="375.2" x2="348.3" y2="370.5"/>
<line class="st1" x1="348.3" y1="8.4" x2="348.3" y2="13"/>
<line class="st1" x1="410.3" y1="375.2" x2="410.3" y2="370.5"/>
<line class="st1" x1="410.3" y1="8.4" x2="410.3" y2="13"/>
<line class="st1" x1="472.3" y1="375.2" x2="472.3" y2="370.5"/>
<line class="st1" x1="472.3" y1="8.4" x2="472.3" y2="13"/>
<line class="st1" x1="38.3" y1="375.2" x2="42.9" y2="375.2"/>
<line class="st1" x1="503.3" y1="375.2" x2="498.6" y2="375.2"/>
<line class="st1" x1="38.3" y1="326.2" x2="42.9" y2="326.2"/>
<line class="st1" x1="503.3" y1="326.2" x2="498.6" y2="326.2"/>
<line class="st1" x1="38.3" y1="277.3" x2="42.9" y2="277.3"/>
<line class="st1" x1="503.3" y1="277.3" x2="498.6" y2="277.3"/>
<line class="st1" x1="38.3" y1="228.4" x2="42.9" y2="228.4"/>
<line class="st1" x1="503.3" y1="228.4" x2="498.6" y2="228.4"/>
<line class="st1" x1="38.3" y1="179.5" x2="42.9" y2="179.5"/>
<line class="st1" x1="503.3" y1="179.5" x2="498.6" y2="179.5"/>
<line class="st1" x1="38.3" y1="130.7" x2="42.9" y2="130.7"/>
<line class="st1" x1="503.3" y1="130.7" x2="498.6" y2="130.7"/>
<line class="st1" x1="38.3" y1="81.7" x2="42.9" y2="81.7"/>
<line class="st1" x1="503.3" y1="81.7" x2="498.6" y2="81.7"/>
<line class="st1" x1="38.3" y1="32.8" x2="42.9" y2="32.8"/>
<line class="st1" x1="503.3" y1="32.8" x2="498.6" y2="32.8"/>
<line class="st1" x1="38.3" y1="8.4" x2="503.3" y2="8.4"/>
<line class="st1" x1="38.3" y1="375.2" x2="503.3" y2="375.2"/>
<line class="st1" x1="503.3" y1="375.2" x2="503.3" y2="8.4"/>
<line class="st1" x1="38.3" y1="375.2" x2="38.3" y2="8.4"/>
<g>
	<defs>
		<rect id="SVGID_1_" x="38.3" y="8.4" width="465" height="366.8"/>
	</defs>
	<clipPath id="SVGID_2_">
		<use xlink:href="#SVGID_1_"  style="overflow:visible;"/>
	</clipPath>
	<polyline class="st2" points="69.3,344.6 75.5,342.1 81.7,339.5 87.9,336.7 94.1,334 100.3,331.1 106.5,328.2 112.7,325.1 
		118.9,321.8 125.1,318.6 131.3,315.2 137.5,311.7 143.7,308.2 149.8,304.5 156.1,300.7 162.3,296.9 168.5,292.9 174.7,288.8 
		180.8,284.7 187.1,280.4 193.3,276.1 199.5,271.7 205.7,267.1 211.8,262.5 218.1,257.7 224.3,252.9 230.4,247.9 236.7,242.9 
		242.8,237.7 249.1,232.5 255.3,227.2 261.4,221.7 267.7,216.2 273.8,210.7 280.1,204.9 286.3,199.1 292.4,193.2 298.7,187.2 
		304.8,181 311.1,174.8 317.3,168.5 323.4,162.1 329.7,155.6 335.8,149 342,142.3 348.3,135.5 354.4,128.6 360.7,121.7 366.8,114.5 
		373,107.3 379.3,100.1 385.4,92.7 391.7,85.2 397.8,77.6 404,69.9 410.3,62.2 416.4,54.3 422.6,46.3 428.8,38.2 435,30.1 
		441.3,21.8 447.4,13.5 451.2,8.4 	"/>
</g>
<path class="st3" d="M413.3,62.2c0,1.7-1.3,3-3,3c-1.7,0-3-1.3-3-3c0-1.7,1.3-3,3-3C411.9,59.2,413.3,60.5,413.3,62.2"/>
<path class="st3" d="M204,270.5c0,1.7-1.3,3-3,3c-1.7,0-3-1.3-3-3c0-1.7,1.3-3,3-3C202.7,267.5,204,268.8,204,270.5"/>
<path class="st3" d="M127.7,318.8c0,1.7-1.3,3-3,3c-1.7,0-3-1.3-3-3c0-1.7,1.3-3,3-3C126.3,315.8,127.7,317.2,127.7,318.8"/>
<path class="st3" d="M113.3,326.2c0,1.7-1.3,3-3,3c-1.7,0-3-1.3-3-3c0-1.7,1.3-3,3-3C112,323.2,113.3,324.6,113.3,326.2"/>
<g>
	<defs>
		<rect id="SVGID_3_" x="38.3" y="8.4" width="465" height="366.8"/>
	</defs>
	<clipPath id="SVGID_4_">
		<use xlink:href="#SVGID_3_"  style="overflow:visible;"/>
	</clipPath>
	<line class="st4" x1="38.3" y1="326.2" x2="503.3" y2="326.2"/>
	<line class="st5" x1="410.3" y1="326.2" x2="410.3" y2="62.2"/>
	<line class="st5" x1="201" y1="326.2" x2="201" y2="270.5"/>
	<line class="st5" x1="124.7" y1="326.2" x2="124.7" y2="318.8"/>
	<polyline class="st5" points="187.1,343.8 193.3,336 199.5,328.2 205.7,320.3 211.8,312.5 218.1,304.7 224.3,296.9 230.4,289.1 
		236.7,281.2 242.8,273.4 249.1,265.6 255.3,257.7 261.4,249.9 267.7,242.1 273.8,234.3 280.1,226.5 286.3,218.7 292.4,210.8 
		298.7,203 304.8,195.2 311.1,187.3 317.3,179.5 323.4,171.7 329.7,163.9 335.8,156.1 342,148.2 348.3,140.4 354.4,132.6 
		360.7,124.7 366.8,116.9 373,109.1 379.3,101.2 385.4,93.5 391.7,85.7 397.8,77.8 404,70 410.3,62.2 416.4,54.3 422.6,46.5 
		428.8,38.7 435,30.8 441.3,23.1 447.4,15.2 452.8,8.4 	"/>
	<polyline class="st5" points="112.7,335 118.9,330.4 125.1,325.9 131.3,321.4 137.5,316.9 143.7,312.3 149.8,307.8 156.1,303.3 
		162.3,298.8 168.5,294.2 174.7,289.7 180.8,285.2 187.1,280.7 193.3,276.2 199.5,271.7 205.7,267.2 211.8,262.6 218.1,258.1 
		224.3,253.6 230.4,249 236.7,244.5 242.8,240 249.1,235.5 255.3,230.9 261.4,226.4 267.7,221.9 273.8,217.4 280.1,212.8 	"/>
	<polyline class="st5" points="69.3,348.5 75.5,345.2 81.7,341.8 87.9,338.5 94.1,335.2 100.3,331.8 106.5,328.6 112.7,325.2 
		118.9,321.9 125.1,318.6 131.3,315.2 137.5,312 143.7,308.7 149.8,305.3 156.1,302 162.3,298.7 168.5,295.3 174.7,292.1 
		180.8,288.7 187.1,285.4 	"/>
</g>
<text transform="matrix(1 0 0 1 375.8333 45.9167)" class="st6 st7">f</text>
<text transform="matrix(1 0 0 1 382.558 45.9167)" class="st8 st7">(</text>
<text transform="matrix(1 0 0 1 391.0872 45.9167)" class="st6 st7">x</text>
<text transform="matrix(0.583 0 0 0.583 401.2708 53.2428)" class="st6 st7">1</text>
<text transform="matrix(1 0 0 1 407.8216 45.9167)" class="st8 st7">)</text>
<text transform="matrix(1 0 0 1 177.8338 249.4167)" class="st6 st7">f</text>
<text transform="matrix(1 0 0 1 184.5584 249.4167)" class="st8 st7">(</text>
<text transform="matrix(1 0 0 1 193.0877 249.4167)" class="st6 st7">x</text>
<text transform="matrix(0.583 0 0 0.583 203.2713 256.7428)" class="st6 st7">2</text>
<text transform="matrix(1 0 0 1 209.8221 249.4167)" class="st8 st7">)</text>
<text transform="matrix(1 0 0 1 404.3333 342.7497)" class="st6 st7">x</text>
<text transform="matrix(0.583 0 0 0.583 414.5169 350.0758)" class="st6 st7">1</text>
<text transform="matrix(1 0 0 1 201.0003 342.7497)" class="st6 st7">x</text>
<text transform="matrix(0.583 0 0 0.583 211.1839 350.0758)" class="st6 st7">2</text>
<text transform="matrix(1 0 0 1 121.6663 342.7497)" class="st6 st7">x</text>
<text transform="matrix(0.583 0 0 0.583 131.8499 350.0758)" class="st6 st7">3</text>
<g>
	<text transform="matrix(6.123234e-17 -1 1 6.123234e-17 19.9456 63.9167)" class="st6 st7">y</text>
	<g>
		<line x1="14.5" y1="47.9" x2="14.5" y2="8.4"/>
		<g>
			<line class="st9" x1="14.5" y1="47.9" x2="14.5" y2="16.6"/>
			<g>
				<path d="M14.5,18.4l-3.6,2.2l-0.1-0.1l2.3-5.9c0.5-2,0.9-4.1,1.4-6.1c0.5,2,0.9,4.1,1.4,6.1l2.3,5.9l-0.1,0.1L14.5,18.4z"/>
			</g>
		</g>
	</g>
</g>
<g>
	<text transform="matrix(1 0 0 1 447.7477 395.5834)" class="st6 st7">x</text>
	<g>
		<line x1="463.8" y1="390.2" x2="503.3" y2="390.2"/>
		<g>
			<line class="st9" x1="463.8" y1="390.2" x2="495.1" y2="390.2"/>
			<g>
				<path d="M493.3,390.2l-2.2-3.6l0.1-0.1l5.9,2.3c2,0.5,4.1,0.9,6.1,1.4c-2,0.5-4.1,0.9-6.1,1.4l-5.9,2.3l-0.1-0.1L493.3,390.2z"
					/>
			</g>
		</g>
	</g>
</g>
<text transform="matrix(1 0 0 1 107.3333 284.9997)" class="st6 st7">f</text>
<text transform="matrix(1 0 0 1 114.0579 284.9997)" class="st8 st7">(</text>
<text transform="matrix(1 0 0 1 122.5872 284.9997)" class="st6 st7">x</text>
<text transform="matrix(0.583 0 0 0.583 132.7708 292.3258)" class="st6 st7">3</text>
<text transform="matrix(1 0 0 1 139.3216 284.9997)" class="st8 st7">)</text>
<text transform="matrix(1 0 0 1 57.2503 315.8337)" class="st6 st7">f</text>
<text transform="matrix(1 0 0 1 63.9749 315.8337)" class="st8 st7">(</text>
<text transform="matrix(1 0 0 1 72.5042 315.8337)" class="st6 st7">x</text>
<text transform="matrix(0.583 0 0 0.583 82.6878 323.1599)" class="st6 st7">root</text>
<text transform="matrix(1 0 0 1 105.4398 315.8337)" class="st8 st7">)</text>
</svg>
